<svg xmlns="http://www.w3.org/2000/svg" width="69" height="58" viewBox="0 0 69 58"><defs><style>.cls-1{fill:#72d0f4;fill-rule:evenodd}</style></defs><path class="cls-1" d="M57.34 18.964a9.524 9.524 0 0 0 9.51-9.515 9.47 9.47 0 1 0-9.51 9.515zm0-16.879a7.4 7.4 0 1 1-7.42 7.364 7.424 7.424 0 0 1 7.42-7.364zm-2.27 11.926a1.184 1.184 0 0 0 .45.131c.13.065.33.065.52.13a1.458 1.458 0 0 0 .52.065h.13v1.3h1.57v-1.368h.06a2.308 2.308 0 0 0 .59-.261 2.484 2.484 0 0 0 .52-.326 2.8 2.8 0 0 0 .39-.456 3.653 3.653 0 0 0 .32-.521c.07-.2.13-.391.2-.587a2.17 2.17 0 0 0 .06-.651 1.555 1.555 0 0 0-.06-.522 1.862 1.862 0 0 0-.2-.521 1.518 1.518 0 0 0-.26-.456c-.13-.131-.19-.261-.32-.391a1.14 1.14 0 0 0-.46-.326 1.611 1.611 0 0 0-.45-.261c-.2-.065-.33-.2-.52-.26a4.3 4.3 0 0 1-.52-.2.52.52 0 0 1-.27-.13c-.06-.065-.19-.065-.26-.131-.06-.065-.19-.065-.26-.13-.06-.065-.13-.13-.19-.195a.327.327 0 0 1-.13-.261.372.372 0 0 1-.07-.261V7.1c0-.065.07-.195.07-.26.06-.066.06-.2.13-.261s.13-.13.19-.2a.522.522 0 0 1 .33-.13.586.586 0 0 1 .33-.065h.39a.569.569 0 0 1 .32.065 3.2 3.2 0 0 1 .33.065c.06 0 .19.065.26.065a1.585 1.585 0 0 1 .26.066l.32.13.07-.391.13-1.043v-.26l-.26-.066c-.07 0-.2-.065-.26-.065a1.6 1.6 0 0 0-.26-.065 3.2 3.2 0 0 0-.33-.065c-.13 0-.19-.065-.32-.065h-.07V3.317H56.5v1.3h-.07a2.249 2.249 0 0 0-.58.261 1.148 1.148 0 0 0-.46.325 2.849 2.849 0 0 0-.39.457 1.38 1.38 0 0 0-.26.521c-.06.195-.13.391-.19.586a2.075 2.075 0 0 0-.07.652 1.345 1.345 0 0 0 .07.522 1.578 1.578 0 0 0 .19.521c.07.13.2.326.26.456.13.13.2.261.33.391a1.188 1.188 0 0 0 .45.326 1.682 1.682 0 0 0 .46.261 4.184 4.184 0 0 1 .52.26 4.84 4.84 0 0 1 .52.2.493.493 0 0 1 .26.13c.07.065.2.065.26.13a.351.351 0 0 0 .2.131c.06.065.13.13.19.195a.74.74 0 0 1 .13.261 2.663 2.663 0 0 1 .07.326v.326a.532.532 0 0 1-.13.26c-.07.066-.13.131-.2.2a.832.832 0 0 1-.26.195c-.06.066-.19.066-.26.131a2.725 2.725 0 0 1-.33.065h-.84a3.2 3.2 0 0 1-.33-.065.912.912 0 0 1-.39-.131c-.13-.065-.26-.065-.39-.13-.06 0-.13-.065-.19-.065s-.13-.065-.2-.065l-.39-.2-.06.456-.13 1.173v.2l.19.065a.888.888 0 0 1 .59.067zm-42.9 21.18a1.057 1.057 0 0 0 .59-.2l14.12-10.1 13.67 5.67a1.167 1.167 0 0 0 1.04-.13l11-8.733a1.068 1.068 0 1 0-1.3-1.694L40.75 28.41l-13.61-5.669a1.026 1.026 0 0 0-.97.13L11.59 33.3a1.034 1.034 0 0 0-.26 1.434.938.938 0 0 0 .84.457zm55.85 20.724H63.2V25.742a1.025 1.025 0 0 0-1.04-1.043h-9.57a1.031 1.031 0 0 0-1.04 1.043v30.173h-3.51V36.169A1.031 1.031 0 0 0 47 35.126h-9.64a1.031 1.031 0 0 0-1.04 1.043v19.746h-3.51V34.6a1.033 1.033 0 0 0-1.05-1.042H22.2a1.033 1.033 0 0 0-1.05 1.042v21.311h-3.51V40.73a1.031 1.031 0 0 0-1.04-1.042H6.96a1.031 1.031 0 0 0-1.04 1.042v15.185H1.04a1.043 1.043 0 0 0 0 2.085h66.91A1.033 1.033 0 0 0 69 56.957a.944.944 0 0 0-.98-1.042zM53.63 26.784h7.49v29.131h-7.49V26.784zM38.4 37.211h7.49v18.7H38.4v-18.7zm-15.16-1.564h7.48v20.268h-7.48V35.647zM8.01 41.773h7.48v14.142H8.01V41.773z"/></svg>