<svg xmlns="http://www.w3.org/2000/svg" width="55" height="55" viewBox="0 0 55 55"><defs><style>.cls-1{fill:#72d0f4;fill-rule:evenodd}</style></defs><path class="cls-1" d="M12.65 18.729a1.074 1.074 0 1 0 0 1.519 1.076 1.076 0 0 0 0-1.519zM27.2 48.1a3.76 3.76 0 0 0-3.03-5.987H5.91a3.76 3.76 0 0 0-3.03 5.986A5.375 5.375 0 0 0 0 52.855v1.074a1.072 1.072 0 0 0 1.07 1.074H29a1.074 1.074 0 0 0 1.08-1.074V52.85a5.376 5.376 0 0 0-2.88-4.75zM4.77 44.733a1.6 1.6 0 0 1 1.14-.472h18.26a1.612 1.612 0 1 1 0 3.223H5.91a1.611 1.611 0 0 1-1.61-1.611 1.576 1.576 0 0 1 .47-1.145zm-2.62 8.122a3.222 3.222 0 0 1 3.22-3.223h19.34a3.229 3.229 0 0 1 3.22 3.223H2.15zM54 45.136a6.693 6.693 0 0 0-1.29-1.486l-5.02-4.378a1.3 1.3 0 0 0-.14-.167 1.038 1.038 0 0 0-.29-.206l-3.04-2.647-14.05-12.256a3.216 3.216 0 0 0-.94-5.131l1.3-1.3a4.3 4.3 0 0 0 4.15-7.187l-9.12-9.114a4.288 4.288 0 0 0-6.07 0 4.3 4.3 0 0 0-1.11 4.148L5.41 18.381a4.3 4.3 0 0 0-4.15 7.189l9.11 9.114a4.3 4.3 0 0 0 7.19-4.148l1.3-1.3a3.155 3.155 0 0 0 .63.888 3.22 3.22 0 0 0 4.5.054l14.96 17.193a1.382 1.382 0 0 0 .15.182q.03.029.06.054l4.46 5.124c.11.131.23.259.35.382a6.391 6.391 0 0 0 4.54 1.889 6.737 6.737 0 0 0 .91-.063 6.482 6.482 0 0 0 4.79-3.32 6.342 6.342 0 0 0-.21-6.488zM21.01 2.783a2.116 2.116 0 0 1 1.52-.63 2.15 2.15 0 0 1 1.52.63l9.11 9.115a2.146 2.146 0 0 1 0 3.038 2.152 2.152 0 0 1-3.04 0l-9.11-9.115a2.146 2.146 0 0 1 0-3.043zm-6.08 30.382a2.152 2.152 0 0 1-3.04 0l-9.11-9.114a2.147 2.147 0 0 1 0-3.039 2.119 2.119 0 0 1 1.52-.629 2.153 2.153 0 0 1 1.52.629l9.11 9.116a2.145 2.145 0 0 1 0 3.032zm4.52-7.56l-3 3-9.11-9.115L19.49 7.337l9.11 9.115-3.01 3.009a.083.083 0 0 1-.03.029l-6.07 6.073a.149.149 0 0 1-.04.037zm3.84 2.241l-.01.006-.75.756a1.093 1.093 0 0 1-.76.315 1.058 1.058 0 0 1-.76-.315 1.045 1.045 0 0 1-.32-.76 1.078 1.078 0 0 1 .3-.745l6.11-6.1a1.068 1.068 0 0 1 1.5.011 1.062 1.062 0 0 1 0 1.52l-.75.752s-.01.01-.01.015zm2.22.813l3.14-3.139 13.3 11.594-4.85 4.851zm13 14.931l5.06-5.06 1.62 1.415-5.27 5.269zm13.83 6.983a4.368 4.368 0 0 1-3.22 2.241 4.27 4.27 0 0 1-3.63-1.217 3.664 3.664 0 0 1-.23-.256.011.011 0 0 1-.01-.012l-3.91-4.49 5.47-5.478 4.49 3.912s.01.006.01.009a4.7 4.7 0 0 1 .89 1.02 4.24 4.24 0 0 1 .14 4.266zM20.25 11.138a1.074 1.074 0 0 0-1.52 0l-4.56 4.558a1.074 1.074 0 0 0 1.52 1.519l4.56-4.558a1.073 1.073 0 0 0 0-1.524z"/></svg>