<svg xmlns="http://www.w3.org/2000/svg" width="50" height="50" viewBox="0 0 50 50"><defs><style>.cls-1{fill:#72d0f4;fill-rule:evenodd}</style></defs><path class="cls-1" d="M39.56 17.49a1 1 0 0 0-.69-.286.977.977 0 0 0-.69.286.967.967 0 0 0 0 1.381.973.973 0 0 0 .69.286.981.981 0 0 0 .69-1.667zm1.42 10.021a.974.974 0 0 0-1.33.37l-5.76 10.2a.973.973 0 0 0 .37 1.331.976.976 0 0 0 1.33-.371l5.76-10.2a.98.98 0 0 0-.37-1.33zm1.2 6.79a2.93 2.93 0 1 0 2.93 2.93 2.93 2.93 0 0 0-2.93-2.931zm0 3.906a.977.977 0 1 1 .98-.976.979.979 0 0 1-.98.976zM34.31 25.66a2.93 2.93 0 1 0 2.93 2.929 2.93 2.93 0 0 0-2.93-2.929zm0 3.906a.977.977 0 1 1 .97-.977.98.98 0 0 1-.97.977zm3.87-8.472a11.816 11.816 0 0 0-.36 23.626 4.1 4.1 0 0 1-8.13-.775.268.268 0 0 0-.01-.089.378.378 0 0 0 .01-.106.979.979 0 0 0-.98-.976H7.23V6.25a4.3 4.3 0 0 1 4.29-4.3H39.5a6.018 6.018 0 0 0-1.61 4.1.317.317 0 0 0 .01.1.327.327 0 0 0-.01.1v8.35a.975.975 0 1 0 1.95 0V7.034h9.18a.979.979 0 0 0 .98-.976A6.063 6.063 0 0 0 43.95.003c-.2 0-.4.01-.59.029a1.093 1.093 0 0 0-.24-.029h-31.6a6.261 6.261 0 0 0-6.25 6.25v36.524H.98a.979.979 0 0 0-.98.976 6.255 6.255 0 0 0 6.25 6.25h27.54a6.072 6.072 0 0 0 6.02-5.385 11.817 11.817 0 0 0-1.63-23.524zm5.77-19.141a4.11 4.11 0 0 1 3.98 3.125h-7.97a4.113 4.113 0 0 1 3.99-3.125zM6.25 48.047a4.3 4.3 0 0 1-4.18-3.32h25.72a5.993 5.993 0 0 0 1.55 3.32H6.25zm31.93-5.273a9.864 9.864 0 1 1 9.87-9.864 9.878 9.878 0 0 1-9.87 9.864zM23.21 25.586H13.09a.977.977 0 1 0 0 1.953h10.12a.977.977 0 1 0 0-1.953zm0 5.469H13.09a.977.977 0 1 0 0 1.953h10.12a.977.977 0 1 0 0-1.953zm6.62-10.938H13.09a.977.977 0 1 0 0 1.953h16.74a.977.977 0 1 0 0-1.953zm-6.62 16.406H16.7a.977.977 0 1 0 0 1.954h6.51a.977.977 0 1 0 0-1.954zm-9.43.287a.973.973 0 0 0-1.38 0 .966.966 0 0 0 0 1.38.973.973 0 0 0 1.38 0 .966.966 0 0 0 0-1.38zM33.15 6.446h-4.04a.977.977 0 0 0 0 1.953h1.04v6.44a.98.98 0 0 0 1.96 0V8.4h1.04a.977.977 0 0 0 0-1.954zm-14.77.071a.972.972 0 0 0-1.27.537l-2.12 5.2-2.12-5.2a.977.977 0 0 0-1.81.736l3.03 7.422a.967.967 0 0 0 .9.608.957.957 0 0 0 .9-.608l3.03-7.422a.981.981 0 0 0-.54-1.273zm8.33 7.986L24 7.142a.98.98 0 0 0-.92-.64.967.967 0 0 0-.91.64l-2.71 7.361a.975.975 0 1 0 1.83.674l.19-.5h3.21l.19.5a.961.961 0 0 0 .91.64.993.993 0 0 0 .34-.061.978.978 0 0 0 .58-1.256zm-4.51-1.779l.88-2.417.89 2.417H22.2z"/></svg>