<svg xmlns="http://www.w3.org/2000/svg" width="59" height="63" viewBox="0 0 59 63"><defs><style>.cls-1{fill:#72d0f4;fill-rule:evenodd}</style></defs><path class="cls-1" d="M48.82 17L30.12.233a.932.932 0 0 0-1.24 0L10.18 17a.933.933 0 0 0 .62 1.614h5.97V47.28a.921.921 0 0 0 .92.925h23.62a.93.93 0 0 0 .93-.925v-11.3a.925.925 0 0 0-1.85 0v10.377H18.61V17.69a.921.921 0 0 0-.92-.925h-4.48l16.29-14.6 16.29 14.6h-4.48a.921.921 0 0 0-.92.925v13.85a.92.92 0 1 0 1.84 0V18.615h5.97a.917.917 0 0 0 .86-.6.926.926 0 0 0-.24-1.015zm-13.41 6.545a2.407 2.407 0 0 0 2.4-2.4v-1.479a6.853 6.853 0 0 0-5.91-6.781v-1.6a2.4 2.4 0 1 0-4.8 0v1.726a7.583 7.583 0 0 0 1.66 14.98h1.48a2.774 2.774 0 0 1 0 5.548h-2.22a2.034 2.034 0 0 1-2.03-2.034 2.4 2.4 0 1 0-4.8 0 6.851 6.851 0 0 0 5.91 6.78v1.6a2.4 2.4 0 1 0 4.8 0v-1.726a7.583 7.583 0 0 0-1.66-14.98h-1.48a2.774 2.774 0 0 1 0-5.548h2.22a2.034 2.034 0 0 1 2.03 2.034v1.479a2.4 2.4 0 0 0 2.4 2.402zm-4.43-7.767h-2.22a4.624 4.624 0 0 0 0 9.247h1.48a5.733 5.733 0 0 1 .63 11.429.93.93 0 0 0-.82.92v2.507a.55.55 0 1 1-1.1 0v-2.465a.93.93 0 0 0-.93-.925 5 5 0 0 1-4.98-4.993.555.555 0 1 1 1.11 0 3.883 3.883 0 0 0 3.87 3.883h2.22a4.623 4.623 0 0 0 0-9.246h-1.48a5.733 5.733 0 0 1-.63-11.43.929.929 0 0 0 .82-.919v-2.508a.55.55 0 1 1 1.1 0v2.466a.93.93 0 0 0 .93.925 5 5 0 0 1 4.98 4.993v1.479a.555.555 0 1 1-1.11 0v-1.479a3.884 3.884 0 0 0-3.87-3.883zm10.33 35.508H17.69a.925.925 0 0 0 0 1.85h23.62a.925.925 0 0 0 0-1.849zm0 4.932H17.69a.925.925 0 0 0 0 1.849h23.62a.925.925 0 0 0 0-1.848zm0 4.931H17.69a.925.925 0 0 0 0 1.85h23.62a.925.925 0 0 0 0-1.849zm16.77-26.754a.921.921 0 0 0 .92-.925v-.986a3.886 3.886 0 0 0-3.88-3.884h-.06v-2.034a.92.92 0 1 0-1.84 0v2.056a4.377 4.377 0 0 0 .43 8.732h.98a2.528 2.528 0 0 1 0 5.055h-1.47a2.034 2.034 0 0 1-2.03-2.034.925.925 0 1 0-1.85 0 3.886 3.886 0 0 0 3.88 3.883h.06v2.035a.92.92 0 1 0 1.84 0v-2.056a4.377 4.377 0 0 0-.43-8.732h-.98a2.528 2.528 0 0 1 0-5.055h1.47a2.034 2.034 0 0 1 2.03 2.034v.986a.93.93 0 0 0 .93.93zm-49.28 0a.921.921 0 0 0 .92-.925v-.986A3.886 3.886 0 0 0 5.84 28.6h-.06v-2.034a.92.92 0 1 0-1.84 0v2.056a4.377 4.377 0 0 0 .43 8.732h.98a2.528 2.528 0 0 1 0 5.055H3.88a2.034 2.034 0 0 1-2.03-2.034.925.925 0 1 0-1.85 0 3.886 3.886 0 0 0 3.88 3.883h.06v2.035a.92.92 0 1 0 1.84 0v-2.056a4.377 4.377 0 0 0-.43-8.732h-.98a2.528 2.528 0 0 1 0-5.055h1.47a2.034 2.034 0 0 1 2.03 2.034v.986a.93.93 0 0 0 .93.93z"/></svg>