<svg id="Layer_1" data-name="Layer 1" xmlns="http://www.w3.org/2000/svg" viewBox="0 0 45.72 45.99"><defs><style>.cls-1{fill:none;stroke:#e1514a;stroke-miterlimit:10;stroke-width:2px}</style></defs><title>ask</title><path class="cls-1" d="M36.42 9.3V5.07a4 4 0 0 0-4-4H5a4 4 0 0 0-4 4v18.71a4 4 0 0 0 4 4h4.3" transform="translate(0 -.1)"/><path class="cls-1" d="M13.32 9.3h27.39a4 4 0 0 1 4 4V32a4 4 0 0 1-4 4h-5.77v7.76L27.08 36H13.32a4 4 0 0 1-4-4V13.27a4 4 0 0 1 4-3.97z" transform="translate(0 -.1)"/><path class="cls-1" d="M37.6 17.11H23.97m13.63 5.27H14.93m22.67 5.26H14.93"/></svg>