<svg xmlns="http://www.w3.org/2000/svg" width="11" height="16" viewBox="0 0 11 16"><defs><style>.cls-1{fill:#666;fill-rule:evenodd}</style></defs><path id="ic-delete" class="cls-1" d="M263.867 563.309a.96.96 0 0 1 .3.7h-11a1.014 1.014 0 0 1 1-1h2a1.014 1.014 0 0 1 1-1h3a1.014 1.014 0 0 1 1 1h2a.96.96 0 0 1 .7.3zm-10.7 1.7h11v12a1.014 1.014 0 0 1-1 1h-9a1.014 1.014 0 0 1-1-1v-12zm8 10.5a.5.5 0 1 0 1 0v-8a.5.5 0 1 0-1 0v8zm-3 0a.5.5 0 1 0 1 0v-8a.5.5 0 1 0-1 0v8zm-3 0a.5.5 0 1 0 1 0v-8a.5.5 0 1 0-1 0v8z" transform="translate(-253.156 -562)"/></svg>