<svg id="Layer_1" data-name="Layer 1" xmlns="http://www.w3.org/2000/svg" viewBox="0 0 455 356.08"><defs><style>.cls-1{fill:#fff}</style></defs><title>newslaunch</title><path class="cls-1" d="M447.16 218.62c-5.62-3.1-12.76-2.42-19.57 1.87L301.64 299.8a7.5 7.5 0 1 0 8 12.69l125.95-79.31c2.66-1.67 4.12-1.55 4.33-1.43s1.1 1.29 1.1 4.43c0 8.45-6.27 19.81-13.42 24.31l-122.1 76.89c-6.49 4.09-12.43 5.21-16.28 3.08s-6.07-7.75-6.07-15.42c0-19.44 13.9-44.61 30.35-55l139-87.54a7.5 7.5 0 0 0 0-12.69L185.37 1.62a7.5 7.5 0 0 0-8 0L36.66 90.22C16.66 102.82 1 131.19 1 154.82v4c0 23.63 15.66 52 35.66 64.6L246 355.2a7.5 7.5 0 1 0 8-12.69L44.65 210.72C29.12 200.94 16 177.17 16 158.82v-4c0-18.35 13.12-42.12 28.65-51.9l136.72-86.09 253.06 159.35-128.94 81.2c-20.95 13.19-37.35 42.91-37.35 67.66 0 13.49 4.91 23.64 13.82 28.55a23.94 23.94 0 0 0 11.71 3c6.23 0 13-2.18 19.82-6.48l122.1-76.89C447 266 456 249.71 456 236.18c0-8.06-3.22-14.46-8.84-17.56z" transform="translate(-1 -.46)" fill="#e03e36"/><path class="cls-1" d="M354.66 183.68a7.5 7.5 0 0 0 4-13.85L185.37 60.7a7.5 7.5 0 1 0-8 12.69l173.3 109.13a7.47 7.47 0 0 0 3.99 1.16zm-29.98 19.9a7.5 7.5 0 0 0 4-13.85l-73.21-45.9a7.5 7.5 0 0 0-8 12.71l73.21 45.9a7.46 7.46 0 0 0 4 1.14zm-99.78-40.02a7.5 7.5 0 1 0-7.9 12.72l73.77 46.06a7.5 7.5 0 1 0 7.94-12.72zm-78.69-83.23l-62.33 39.25a7.5 7.5 0 0 0 0 12.72l74.34 46.22a7.5 7.5 0 0 0 8-.07l16.56-10.7a7.5 7.5 0 0 0-8.14-12.6l-12.56 8.12L102 125.89l48.2-30.35 59.24 37.15-6.91 4.46a7.5 7.5 0 0 0 8.14 12.6l16.8-10.86a7.5 7.5 0 0 0-.09-12.65l-73.19-45.92a7.5 7.5 0 0 0-7.98.01zm124.88 159.52a7.5 7.5 0 0 0-2.41-10.33l-74.34-46.22a7.5 7.5 0 1 0-7.92 12.7l74.34 46.22a7.5 7.5 0 0 0 10.33-2.41zM54.53 143.86a7.5 7.5 0 0 0 2.41 10.33l183.47 114.08a7.5 7.5 0 1 0 7.92-12.74L64.86 141.46a7.5 7.5 0 0 0-10.33 2.4z" transform="translate(-1 -.46)" fill="#e03e36"/></svg>