<svg xmlns="http://www.w3.org/2000/svg" width="70" height="68" viewBox="0 0 70 68"><defs><style>.cls-1{fill:#72d0f4;fill-rule:evenodd}</style></defs><path class="cls-1" d="M68.847 42.15h-4.612a1.146 1.146 0 0 0-1.154 1.14h-11.53a1.172 1.172 0 0 0-.816.33l-6.5 6.42-22.868-3.93a3.788 3.788 0 0 0-3.071.82 3.693 3.693 0 0 0 .527 6.06l25.154 14.5a3.783 3.783 0 0 0 1.9.51 3.729 3.729 0 0 0 1.687-.4l12.327-6.08h3.187a1.144 1.144 0 0 0 1.154 1.13h4.612a1.144 1.144 0 0 0 1.153-1.13V43.29a1.146 1.146 0 0 0-1.15-1.14zm-5.766 17.09h-3.459a1.149 1.149 0 0 0-.515.12l-12.572 6.21a1.461 1.461 0 0 1-1.391-.05L19.991 51.03a1.441 1.441 0 0 1-.205-2.36 1.5 1.5 0 0 1 1.192-.32l21.267 3.66-.934.92a4.322 4.322 0 0 0-1.291 3.08 4.423 4.423 0 0 0 7.535 3.09l5.964-5.89-1.63-1.61-5.964 5.89a2.126 2.126 0 0 1-1.491.61 2.1 2.1 0 0 1-2.108-2.09 2.056 2.056 0 0 1 .617-1.47l9.085-8.97h11.053v13.67zm4.613 1.14h-2.306V44.43h2.306v15.95zM41.173 17.09a6.835 6.835 0 1 0 6.918 6.83 6.879 6.879 0 0 0-6.918-6.83zm0 11.39a4.555 4.555 0 1 1 4.612-4.56 4.587 4.587 0 0 1-4.612 4.56zM63.081 0H19.265a1.146 1.146 0 0 0-1.154 1.14v9.11H8.887a1.135 1.135 0 0 0-.815.34L0 18.56l1.631 1.61 7.733-7.64h8.747v6.84h-5.765v2.27h14.99a2.3 2.3 0 0 1 2.306 2.28 2.24 2.24 0 0 1-.677 1.61 2.311 2.311 0 0 1-1.629.67h-8.071a1.162 1.162 0 0 0-.817.34l-3.458 3.41 1.63 1.61 1.491-1.47v6.36H.811v2.28h62.266a1.146 1.146 0 0 0 1.154-1.14V1.14A1.146 1.146 0 0 0 63.081 0zM20.418 11.39h3.312a4.619 4.619 0 0 1-3.312 3.28v-3.28zm0 25.06v-3.27a4.59 4.59 0 0 1 3.312 3.27h-3.312zm41.51 0h-3.312a4.59 4.59 0 0 1 3.312-3.27v3.27zm0-5.59a6.887 6.887 0 0 0-5.661 5.59H26.079a6.886 6.886 0 0 0-5.661-5.59v-2.38h6.918a4.622 4.622 0 0 0 3.26-1.34 4.482 4.482 0 0 0 1.352-3.22 4.585 4.585 0 0 0-4.612-4.55h-6.918v-2.38a6.9 6.9 0 0 0 5.661-5.6h30.188a6.9 6.9 0 0 0 5.661 5.6v13.87zm0-16.19a4.619 4.619 0 0 1-3.312-3.28h3.312v3.28zm0-5.56h-41.51V6.84h41.51v2.27zm0-4.55h-41.51V2.28h41.51v2.28z"/></svg>