<svg xmlns="http://www.w3.org/2000/svg" width="92" height="81" viewBox="0 0 92 81"><defs><style>.cls-1{fill:#fff;fill-rule:evenodd}</style></defs><path class="cls-1" d="M0 71.224A9.749 9.749 0 0 0 9.7 81h72.6a9.748 9.748 0 0 0 9.7-9.776V9.776A9.749 9.749 0 0 0 82.3 0H9.7A9.748 9.748 0 0 0 0 9.776v61.448zm82.3 5.134H9.7a5.127 5.127 0 0 1-5.09-5.134v-4.76l17.44-17.583 14.91 15.025a2.278 2.278 0 0 0 3.25 0l26.92-27.131 20.26 20.424v14.025a5.127 5.127 0 0 1-5.09 5.134zM9.7 4.642h72.6a5.127 5.127 0 0 1 5.09 5.134v40.848L68.75 31.849a2.288 2.288 0 0 0-3.26 0L38.57 58.98l-14.9-15.025a2.289 2.289 0 0 0-3.26 0L4.61 59.889V9.776A5.127 5.127 0 0 1 9.7 4.642zm18.82 28.249a11.8 11.8 0 1 0-11.71-11.8 11.775 11.775 0 0 0 11.71 11.8zm0-18.966a7.162 7.162 0 1 1-7.11 7.162 7.135 7.135 0 0 1 7.11-7.162z"/></svg>