<svg xmlns="http://www.w3.org/2000/svg" viewBox="0 0 57.33 61.06"><defs><style>.cls-1,.cls-3{fill:none;stroke:#e15049}.cls-1{stroke-miterlimit:10;stroke-width:2px}.cls-2{fill:#e15049}.cls-3{stroke-linecap:round;stroke-linejoin:round;stroke-width:1.25px;stroke-dasharray:0 3.13}</style></defs><title>ic-finish-complete</title><g id="Layer_2" data-name="Layer 2"><g id="Capa_1" data-name="Capa 1"><path class="cls-1" d="M39.23 31.2h11.61a1.63 1.63 0 0 1 1.64 1.64v23.43H4.85V32.84a1.64 1.64 0 0 1 1.64-1.64H18.1"/><path class="cls-1" d="M36.62 34.27H47.9a1.14 1.14 0 0 1 1.1 1.14v20.86H8.29V35.41a1.14 1.14 0 0 1 1.14-1.14h11.29"/><path class="cls-1" d="M44.54 23.88a12.63 12.63 0 0 1-2.34 3.83l-13.53 15.9-13.54-15.9a12.76 12.76 0 0 1-2.34-3.84 16.9 16.9 0 0 1 2-15.59 16.91 16.91 0 0 1 27.8 0 16.94 16.94 0 0 1 1.95 15.6z"/><path class="cls-2" d="M33.42 22.92V17l1.11 1 1-1.19-6.91-6.06-6.91 6.06 1 1.18 1.12-1v5.92zm-7.92-7.31l3.17-2.77 3.16 2.77v5.73H25.5v-5.73z"/><circle class="cls-3" cx="28.67" cy="18.14" r="11.47"/><path class="cls-1" d="M1 56.48h55.33v1.79a1.79 1.79 0 0 1-1.79 1.79H2.79A1.79 1.79 0 0 1 1 58.27v-1.79z"/><path class="cls-2" d="M22.86 56.27h11.62v1.99H22.86z"/></g></g></svg>