<svg xmlns="http://www.w3.org/2000/svg" viewBox="0 0 52.79 42.54"><defs><style>.cls-1{fill:none;stroke:#e15049;stroke-miterlimit:10;stroke-width:2px}</style></defs><title>ic-list-house</title><g id="Layer_2" data-name="Layer 2"><g id="Capa_1" data-name="Capa 1"><path class="cls-1" d="M9.68 5.34h37.79a4.33 4.33 0 0 1 4.32 4.32v27.55a4.33 4.33 0 0 1-4.32 4.33H5.59A4.59 4.59 0 0 1 1 37V10.87"/><path class="cls-1" d="M5.34 1A4.34 4.34 0 0 0 1 5.34v31.45a4.34 4.34 0 0 1 8.68 0V5.34A4.34 4.34 0 0 0 5.34 1zm38.49 29.49h-16V20.06l8-5.67 8 5.67v10.43z"/><path class="cls-1" d="M33.58 23.82h4.5v6.67h-4.5zm-18.25-8.17H22m-6.67 5.19H22m-6.67 5.19H22m-6.67 5.2H22"/></g></g></svg>