<svg xmlns="http://www.w3.org/2000/svg" width="63" height="61.031" viewBox="0 0 63 61.031"><defs><style>.cls-1{fill:#72d0f4;fill-rule:evenodd}</style></defs><path class="cls-1" d="M53.53 20.065H.9a.9.9 0 0 0-.9.9v25.306a.9.9 0 0 0 .9.9h35.788a.904.904 0 0 0 0-1.808H1.8v-23.5h50.821v2.268a.9.9 0 0 0 .9.9.9.9 0 0 0 .9-.9v-3.165a.9.9 0 0 0-.891-.901zm-6.12-4.195L5.31 6.382a.9.9 0 0 0-1.078.685l-2.105 9.488a.902.902 0 1 0 1.761.392l1.909-8.6 41.218 9.289a.886.886 0 0 0 .2.022.9.9 0 0 0 .195-1.788zm-5.112-5.228L17.038.099a.9.9 0 0 0-1.157.431l-2.105 4.217a.905.905 0 1 0 1.592.863.868.868 0 0 0 .026-.053l1.728-3.462 24.48 10.217a.906.906 0 0 0 .698-1.67zm.638 13.64h-8.353a.903.903 0 0 0 0 1.807h8.353a.904.904 0 0 0 0-1.807zm-16.774.06a9.278 9.278 0 1 0 9.263 9.278 9.27 9.27 0 0 0-9.263-9.278zm0 16.869a7.591 7.591 0 1 1 7.578-7.591 7.584 7.584 0 0 1-7.578 7.591zm25.261-13.917c-5.579 0-11.578 1.32-11.578 4.217v25.3c0 2.9 6 4.217 11.578 4.217S63 59.711 63 56.814v-25.3c0-2.9-6-4.22-11.577-4.22zm9.472 29.5c-.159.585-3.315 2.124-9.472 2.124s-9.314-1.539-9.473-2.108v-1.658c2.24 1.131 5.939 1.658 9.473 1.658s7.233-.533 9.472-1.659v1.643zm0-4.217c-.159.585-3.315 2.124-9.472 2.124s-9.314-1.539-9.473-2.108v-1.658c2.24 1.131 5.939 1.658 9.473 1.658s7.233-.533 9.472-1.659v1.643zm0-4.217c-.159.585-3.315 2.124-9.472 2.124s-9.314-1.539-9.473-2.108v-1.658c2.24 1.13 5.939 1.658 9.473 1.658s7.233-.533 9.472-1.659v1.643zm0-4.217c-.159.585-3.315 2.124-9.472 2.124s-9.314-1.539-9.473-2.108v-1.658c2.24 1.13 5.939 1.658 9.473 1.658s7.233-.533 9.472-1.659v1.643zm0-4.217c-.159.585-3.315 2.124-9.472 2.124s-9.314-1.539-9.473-2.109v-1.657c2.24 1.125 5.939 1.657 9.473 1.657s7.233-.532 9.472-1.658v1.648zm0-4.217c-.159.585-3.315 2.124-9.472 2.124s-9.314-1.539-9.473-2.109v-1.653c2.24 1.125 5.939 1.657 9.473 1.657s7.233-.532 9.472-1.658v1.643zm-9.472-2.093c-6.148 0-9.3-1.535-9.473-2.09v-.006c.169-.587 3.325-2.121 9.473-2.121 6.1 0 9.262 1.511 9.472 2.108-.21.601-3.368 2.113-9.472 2.113zm-33.68 7.529H9.787l-3.773-4.132V30.16l4.166-4.075h7.563a.903.903 0 0 0 0-1.807H9.814a.906.906 0 0 0-.631.256l-4.7 4.594a1.126 1.126 0 0 0-.271.738v7.5a.9.9 0 0 0 .235.609l4.277 4.685a.893.893 0 0 0 .666.294h8.355a.903.903 0 0 0-.002-1.805zm8.946-8.584h-1.053a.329.329 0 1 1 0-.527h2.632a1.054 1.054 0 0 0 0-2.108h-1.053a1.053 1.053 0 1 0-2.105 0v.047a2.453 2.453 0 0 0-2.105 2.32 2.515 2.515 0 0 0 2.631 2.377h1.053a.329.329 0 1 1 0 .527h-2.631a1.055 1.055 0 0 0 0 2.109h1.052a1.053 1.053 0 1 0 2.105 0v-.048a2.452 2.452 0 0 0 2.105-2.319 2.516 2.516 0 0 0-2.631-2.374z"/></svg>