<svg xmlns="http://www.w3.org/2000/svg" preserveAspectRatio="xMidYMid" width="15.937" height="23" viewBox="0 0 15.937 23"><defs><style>.cls-1{fill:#959595;fill-rule:evenodd}</style></defs><path d="M11.635 23H-.003V4.322h4.791V-.001h6.847v8.266h4.305V23h-4.305zm-4.79-1.998h2.733V19.03H6.845v1.972zm0-3.97h2.733v-2.385H6.845v2.385zm0-4.384h2.733v-2.385H6.845v2.385zm-4.791 8.354h2.734V19.03H2.054v1.972zm0-3.97h2.734v-2.385H2.054v2.385zm0-4.384h2.734v-2.385H2.054v2.385zm0-6.327v1.944h2.734V6.321H2.054zm7.524-4.323H6.845v2.324h2.733V1.998zM6.845 6.321v1.944h2.733V6.321H6.845zm7.038 3.942h-2.248v2.385h2.248v-2.385zm0 4.384h-2.248v2.385h2.248v-2.385zm0 4.383h-2.248v1.972h2.248V19.03z" class="cls-1"/></svg>