<svg xmlns="http://www.w3.org/2000/svg" preserveAspectRatio="xMidYMid" width="36" height="36" viewBox="0 0 36 36"><defs><style>.cls-1{fill:#da2e2e;fill-rule:evenodd}</style></defs><path d="M11.25 18h-4.5v-4.5h4.5V18zm9-4.5h-4.5V18h4.5v-4.5zm9 0h-4.5V18h4.5v-4.5zm-18 6.75h-4.5v4.5h4.5v-4.5zm9 0h-4.5v4.5h4.5v-4.5zm9 0h-4.5v4.5h4.5v-4.5zm-18 6.75h-4.5v4.5h4.5V27zm9 0h-4.5v4.5h4.5V27zM9 6.75a2.249 2.249 0 0 0 2.25-2.25V2.25A2.249 2.249 0 0 0 9 0a2.249 2.249 0 0 0-2.25 2.25V4.5A2.249 2.249 0 0 0 9 6.75zM36 4.5V36H0V4.5h5.625A3.379 3.379 0 0 0 9 7.875 3.379 3.379 0 0 0 12.375 4.5h11.25A3.379 3.379 0 0 0 27 7.875 3.379 3.379 0 0 0 30.375 4.5H36zm-2.25 6.75H2.25v22.5h31.5v-22.5zM27 6.75a2.248 2.248 0 0 0 2.25-2.25V2.25A2.248 2.248 0 0 0 27 0a2.248 2.248 0 0 0-2.25 2.25V4.5A2.248 2.248 0 0 0 27 6.75z" class="cls-1"/></svg>