<svg xmlns="http://www.w3.org/2000/svg" preserveAspectRatio="xMidYMid" width="19.938" height="16" viewBox="0 0 19.938 16"><defs><style>.cls-1{fill:#959595;fill-rule:evenodd}</style></defs><path d="M17.248 16H2.703C1.219 16 .011 14.773.011 13.265V2.735C.011 1.227 1.219 0 2.703 0h14.545c1.485 0 2.692 1.227 2.692 2.735v10.53c0 1.508-1.207 2.735-2.692 2.735zM2.703 14h14.545a.73.73 0 0 0 .724-.735V4.289l-5.549 5.639a2.863 2.863 0 0 1-2.051.855 3.037 3.037 0 0 1-2.167-.919L1.979 3.537v9.728a.73.73 0 0 0 .724.735zM3.25 2l6.347 6.45c.413.419 1.057.448 1.435.064l6.377-6.481C17.356 2.02 17.305 2 17.248 2H3.25z" class="cls-1"/></svg>