<svg xmlns="http://www.w3.org/2000/svg" preserveAspectRatio="xMidYMid" width="21" height="21" viewBox="0 0 21 21"><defs><style>.cls-1{fill:#969696;fill-rule:evenodd}</style></defs><path d="M17.137 21.002a1.45 1.45 0 0 1-.552-.103 41.168 41.168 0 0 0-.463-.141 28.128 28.128 0 0 1-1.581-.453c-.456-.146-1.14-.424-2.087-.848a18.677 18.677 0 0 1-2.55-1.372c-.744-.486-1.6-1.148-2.618-2.025a18.803 18.803 0 0 1-2.74-2.909c-.785-1.037-1.592-2.338-2.398-3.865A32.214 32.214 0 0 1 .055 4.309l-.03-.115a1.853 1.853 0 0 1-.013-.683c.015-.174.06-.351.135-.526.075-.175.208-.385.457-.723.233-.316.511-.612.828-.879.335-.282.796-.545 1.408-.802A8.834 8.834 0 0 1 4.805.03c.224-.057.525-.037.834.075.194.057.393.152.609.289.159.102.427.289.802.563.403.295.773.625 1.099.982.342.374.654.832.955 1.399.324.614.505 1.27.539 1.953.06.401-.089.858-.427 1.209-.445.496-.83.999-1.145 1.496a7.09 7.09 0 0 0-.33.565c.113.268.459.891 1.511 2.147a11.31 11.31 0 0 0 3.395 2.737c.328-.142.952-.505 2.019-1.43.492-.358.996-.458 1.492-.333a8.073 8.073 0 0 1 1.734.648c.528.271.967.547 1.304.819.323.262.621.543.885.838.284.319.446.521.547.681.091.147.154.256.189.327.134.329.185.588.185.846l-.015.177a8.172 8.172 0 0 1-.556 1.844c-.247.554-.484.988-.727 1.329a5.11 5.11 0 0 1-.857.931 6.95 6.95 0 0 1-.658.506 2.737 2.737 0 0 1-.379.198 1.4 1.4 0 0 1-.673.176zM1.965 3.807a30.127 30.127 0 0 0 1.927 4.56c.756 1.433 1.505 2.642 2.226 3.595a16.8 16.8 0 0 0 2.454 2.605c.938.808 1.749 1.437 2.411 1.868.655.429 1.421.841 2.277 1.223.869.39 1.504.649 1.887.773.406.131.907.274 1.508.43l.432.13.059-.035c.08-.05.225-.168.432-.342.191-.161.367-.353.522-.568.162-.228.34-.559.529-.984.166-.373.297-.792.389-1.248a3.48 3.48 0 0 0-.061-.101 4.694 4.694 0 0 0-.346-.413 5.722 5.722 0 0 0-.655-.62 5.816 5.816 0 0 0-.966-.598 6.1 6.1 0 0 0-1.182-.455c-1.279 1.103-2.283 1.707-3.087 1.847l-.315.055-.288-.142a13.3 13.3 0 0 1-4.378-3.415c-1.631-1.946-1.927-2.776-2.003-3.283l-.011-.146c0-.386.184-.82.681-1.602.352-.556.776-1.115 1.259-1.664a2.716 2.716 0 0 0-.305-1.018 4.842 4.842 0 0 0-.667-.991 5.44 5.44 0 0 0-.808-.721c-.328-.24-.561-.404-.699-.493a.76.76 0 0 0-.114-.062l-.025-.006a6.935 6.935 0 0 0-1.442.41c-.524.221-.781.391-.904.494a3.187 3.187 0 0 0-.51.54c-.097.13-.169.231-.215.304l-.012.073zm5.714 1.62zM5.203 1.958z" class="cls-1"/></svg>