<svg xmlns="http://www.w3.org/2000/svg" preserveAspectRatio="xMidYMid" width="54" height="26.969" viewBox="0 0 54 26.969"><defs><style>.cls-1{fill:#da2e2e;fill-rule:evenodd}</style></defs><path d="M48.858 5.089c-1.202-.403-1.972-2.003-3.192-3.326 2.722-.926 6.147-3.334 7.729-.214 1.969 3.886-1.349 4.6-4.537 3.54zm-.654 9.676c.012 1.114-1.776 1.279-2.748 1.892-.184.118-.266.381-.399.582.296.25.588.511.882.766.614.469 2.065-.302 2.011 1.001-.059 1.39-1.246.715-2.018.68-6.483-.24-13.294.145-17.599 5.005-3.349 3.788-4.651 2.129-7.816.374-2.861-1.586-5.391-4.996-9.586-3.646-.108.04-.284.153-.274.197.041.162.151.309.23.464.512.253 1.018.51 1.527.766.819-.035 1.528.429 1.571 1.07.059.837-.923.844-1.573 1.043-.453.93-1.259 1.296-2.285 1.301-1.768.916-1.376-1.146-2.233-1.488-.901-.466-1.487-1.016-.635-1.99-1.496-1.134-2.896-.653-4.574-.162-1.763.51-3.326.324-2.438-2.553 1.271-4.129 4.001-7.504 5.559-11.493 1.379-3.527 4.723-4.377 8.445-3.22 1.466.456 2.502-.379 3.664-1.184 4.81-3.353 6.143-2.984 10.387 1.137a7.552 7.552 0 0 0 1.599 1.168c.233.126.491.209.734.319.369.167.732.346 1.123.484.356.118.724.206 1.095.307.307.083.607.179.914.248.606.14 1.217.257 1.818.378l.169.036.003-.004c.038.007.074.019.115.024-.427-.861-.225-1.325.381-1.441.202-.034.448-.034.732.008.964.137 1.883.532 2.845.719 1.149.223 2.789-.555 3.333.825.072.189.09.341.067.466-.005.015-.026.027-.033.052-.266.736-2.326.211-2.134 1.556.026.012.049.02.079.032-.023.017-.041.022-.064.042.965-.118 1.807-.05 2.469.306.092.047.156.148.241.206.225.153.45.307.619.536.245.331.432.739.568 1.239.11.408.373 1.041.65 1.09.959.155 2.563-.613 2.579.862z" class="cls-1"/></svg>