<svg xmlns="http://www.w3.org/2000/svg" preserveAspectRatio="xMidYMid" width="16.937" height="21.968" viewBox="0 0 16.937 21.968"><defs><style>.cls-1{fill:#959595;fill-rule:evenodd}</style></defs><path d="M15.965 21.967c-.542 0-.981-.458-.981-1.022v-2.306c0-2.882-2.478-5.223-5.535-5.257v2.487c0 .564-.438 1.021-.98 1.021-.541 0-.98-.457-.98-1.021v-2.487c-3.057.034-5.535 2.375-5.535 5.257v2.306c0 .564-.439 1.022-.98 1.022-.541 0-.98-.458-.98-1.022v-2.306c0-4.028 3.391-7.306 7.56-7.306h1.831c4.169 0 7.56 3.278 7.56 7.306v2.306c0 .564-.439 1.022-.98 1.022zM8.469 10.642c-2.813 0-5.103-2.385-5.103-5.316 0-2.932 2.29-5.317 5.103-5.317 2.814 0 5.103 2.385 5.103 5.317 0 2.931-2.289 5.316-5.103 5.316zm0-8.59c-1.732 0-3.142 1.469-3.142 3.274S6.737 8.6 8.469 8.6c1.733 0 3.142-1.469 3.142-3.274s-1.409-3.274-3.142-3.274zm0 15.529c.542 0 .98.458.98 1.022v1.561c0 .564-.438 1.022-.98 1.022-.541 0-.98-.458-.98-1.022v-1.561c0-.564.439-1.022.98-1.022z" class="cls-1"/></svg>