<svg xmlns="http://www.w3.org/2000/svg" preserveAspectRatio="xMidYMid" width="17.906" height="21.968" viewBox="0 0 17.906 21.968"><defs><style>.cls-1{fill:#959595;fill-rule:evenodd}</style></defs><path d="M14.113 21.965H3.801c-2.096 0-3.802-1.75-3.802-3.901v-6.495c0-1.863 1.281-3.421 2.986-3.806V6.135c0-3.379 2.679-6.127 5.972-6.127 3.293 0 5.972 2.748 5.972 6.127v1.628c1.705.385 2.986 1.943 2.986 3.806v6.495c0 2.151-1.706 3.901-3.802 3.901zM8.957 2.05c-2.195 0-3.981 1.833-3.981 4.085v1.532h7.962V6.135c0-2.252-1.785-4.085-3.981-4.085zm6.967 9.519c0-1.025-.812-1.859-1.811-1.859H3.801c-.999 0-1.811.834-1.811 1.859v6.495c0 1.025.812 1.859 1.811 1.859h10.312c.999 0 1.811-.834 1.811-1.859v-6.495zm-5.972 3.786v1.401c0 .564-.445 1.021-.995 1.021-.549 0-.995-.457-.995-1.021v-1.401a1.867 1.867 0 0 1-.816-1.55c0-1.026.811-1.858 1.811-1.858 1 0 1.811.832 1.811 1.858 0 .648-.325 1.217-.816 1.55z" class="cls-1"/></svg>