<svg xmlns="http://www.w3.org/2000/svg" preserveAspectRatio="xMidYMid" width="18" height="18" viewBox="0 0 18 18"><defs><style>.cls-1{fill:#959595;fill-rule:evenodd}</style></defs><path d="M16.363 18v-1.636H18V18h-1.637zM9.818 0H18v8.182H9.818V0zm1.637 6.545h4.908V1.636h-4.908v4.909zm1.636-3.272h1.636v1.636h-1.636V3.273zM0 9.818h8.182V18H0V9.818zm1.636 6.533h4.909v-4.896H1.636v4.896zm1.637-3.26h1.636v1.636H3.273v-1.636zM0 0h8.182v8.182H0V0zm1.636 6.545h4.909V1.636H1.636v4.909zm1.637-3.272h1.636v1.636H3.273V3.273zm11.454 8.182h1.636V9.818H18v4.909h-4.909v-1.636h-1.636V18H9.818V9.818h4.909v1.637zm0 6.545h-1.636v-1.636h1.636V18z" class="cls-1"/></svg>