<svg xmlns="http://www.w3.org/2000/svg" viewBox="0 0 61.32 52.77"><defs><style>.cls-1{fill:none;stroke:#e15049;stroke-miterlimit:10;stroke-width:2px}.cls-2{font-size:18.25px;font-family:MyriadPro-Regular,Myriad Pro}.cls-2,.cls-3{fill:#e15049}</style></defs><title>ic-register_1</title><g id="Layer_2" data-name="Layer 2"><g id="Capa_1" data-name="Capa 1"><path class="cls-1" d="M9.33 20.44v-6.27a13.17 13.17 0 0 1 26.34 0v6.27z"/><path class="cls-1" d="M38.33 49.77H6.67A5.66 5.66 0 0 1 1 44.11v-18a5.67 5.67 0 0 1 5.67-5.67h31.66A5.67 5.67 0 0 1 44 26.11v18a5.16 5.16 0 0 1-.06.79"/><path class="cls-1" d="M42.65 51.77a4.2 4.2 0 0 1-3-1.23l-7.76-7.77a2.51 2.51 0 0 1 3.55-3.55l7.19 7.19L56 31.62a2.51 2.51 0 0 1 3.55 3.55l-14 15.37a4.18 4.18 0 0 1-2.9 1.23z"/><text class="cls-2" transform="translate(7.09 39.2)">*</text><text class="cls-2" transform="translate(18.71 39.2)">*</text><text class="cls-2" transform="translate(30.17 39.2)">*</text><path class="cls-1" d="M22.5 9a5.17 5.17 0 0 1 5.17 5.17v6.27H17.33v-6.27A5.17 5.17 0 0 1 22.5 9z"/><circle class="cls-1" cx="22.5" cy="40.61" r="2.58"/><rect class="cls-3" x="21.2" y="35.11" width="2.6" height="3.58" rx=".83" ry=".83"/></g></g></svg>