<svg xmlns="http://www.w3.org/2000/svg" width="70" height="53" viewBox="0 0 70 53"><defs><style>.cls-1{fill:#72d0f4;fill-rule:evenodd}</style></defs><path class="cls-1" d="M69.86 48.27l-7.25-12.33a17.957 17.957 0 0 0-3.28-29.12 17.918 17.918 0 0 0-26.45 13.8V2.1h28.48v3.35a1.045 1.045 0 1 0 2.09 0v-4.4A1.041 1.041 0 0 0 62.41 0H31.84a.375.375 0 0 0-.11.01.41.41 0 0 0-.11-.01H6.08a1.05 1.05 0 1 0 0 2.1h24.49v43.67H2.1V1.05a1.05 1.05 0 0 0-2.1 0v50.9A1.05 1.05 0 0 0 1.05 53h30.57a.41.41 0 0 0 .11-.01.375.375 0 0 0 .11.01h29.11A1.05 1.05 0 0 0 62 51.95v-3.31l1.86 3.16a1.041 1.041 0 0 0 .9.52 1.014 1.014 0 0 0 .53-.15l4.19-2.47a1.046 1.046 0 0 0 .38-1.43zM30.57 50.9H2.1v-2.96h28.47v2.96zm6.27-36.01a15.822 15.822 0 1 1 6.23 21.51 15.832 15.832 0 0 1-6.23-21.51zM59.9 50.9H32.88v-2.96H59.9v2.96zm-27.02-5.13V24.38a17.867 17.867 0 0 0 22.8 15.38q.465-.135.93-.3l3.7 6.31H32.88zm32.25 4.06l-6.57-11.18a18.92 18.92 0 0 0 2.39-1.4l6.57 11.18zm-1.33-31.1A13.643 13.643 0 1 0 50.67 36.2a13.877 13.877 0 0 0 3.82-.54 13.668 13.668 0 0 0 9.31-16.93zm-13.09-7.76a11.531 11.531 0 0 1 8.33 3.57H42.35a11.564 11.564 0 0 1 8.36-3.57zm3.2 22.67a11.467 11.467 0 0 1-8.79-.98c-.3-.16-.59-.35-.88-.54h12.91a11.322 11.322 0 0 1-3.24 1.52zm6.9-5.53a11.72 11.72 0 0 1-1.31 1.91H41.89a11.694 11.694 0 0 1-2.6-5.68.842.842 0 0 0 .27.04h22.19a.857.857 0 0 0 .36-.07 11.659 11.659 0 0 1-1.3 3.8zm.94-5.83H39.57a.99.99 0 0 0-.42.09 11.436 11.436 0 0 1 1.43-5.42 2.479 2.479 0 0 1 .18-.31h19.65a1.492 1.492 0 0 0 .21-.02 11.538 11.538 0 0 1 1.17 2.69 11.721 11.721 0 0 1 .45 3.09.988.988 0 0 0-.49-.12zM24.48 7.3H7.86a1.05 1.05 0 0 0 0 2.1h16.62a1.05 1.05 0 0 0 0-2.1zm0 6.42H7.86a1.05 1.05 0 0 0 0 2.1h16.62a1.05 1.05 0 0 0 0-2.1zm0 6.42H7.86a1.05 1.05 0 0 0 0 2.1h16.62a1.05 1.05 0 0 0 0-2.1zm0 6.43H7.86a1.05 1.05 0 0 0 0 2.1h16.62a1.05 1.05 0 0 0 0-2.1zm0 6.42H7.86a1.05 1.05 0 0 0 0 2.1h16.62a1.05 1.05 0 0 0 0-2.1z"/></svg>