<svg xmlns="http://www.w3.org/2000/svg" width="18" height="18.031" viewBox="0 0 18 18.031"><defs><style>.cls-1{fill:#666;fill-rule:evenodd}</style></defs><path id="ic-edit" class="cls-1" d="M617.342 567.416l-.8.8-4.774-4.779.8-.8a2.249 2.249 0 0 1 3.183 0l1.591 1.593a2.259 2.259 0 0 1 0 3.186zm-11.142 9.558a.563.563 0 1 0 .8.8l8.752-8.761-.8-.8zm-3.978-3.983a.563.563 0 1 0 .795.8l8.751-8.762-.8-.8zm10.341-7.169l-8.751 8.762a1.126 1.126 0 1 0 1.592 1.592l8.751-8.76zm-7.161 12.742a1.64 1.64 0 0 1-.447-.963 2.344 2.344 0 0 1-.347.034 2.253 2.253 0 0 1-2.25-2.254 2.182 2.182 0 0 1 .032-.324 1.666 1.666 0 0 1-.964-.473c-.025-.025-.034-.059-.057-.087L600 580l5.481-1.374c-.024-.026-.052-.038-.075-.062z" transform="translate(-600 -561.969)"/></svg>