<svg xmlns="http://www.w3.org/2000/svg" width="16" height="16" viewBox="0 0 16 16"><defs><style>.cls-1{fill:#666;fill-rule:evenodd}</style></defs><path id="ic-Mark" class="cls-1" d="M385.2 572.012a8 8 0 1 1-2.343-5.657 7.71 7.71 0 0 1 2.343 5.657zm-4.187-2.75a.689.689 0 0 0-.3-.438.646.646 0 0 0-.516-.094.789.789 0 0 0-.468.313l-3.375 5.156-1.594-1.5a.768.768 0 0 0-.516-.187.609.609 0 0 0-.484.218.76.76 0 0 0 .031 1l2.25 2.063.047.047a.04.04 0 0 0 .031.015.291.291 0 0 1 .078.032.354.354 0 0 1 .125.062h.125a.2.2 0 0 0 .157 0h.062a.678.678 0 0 0 .219-.094l.031-.031.094-.062a.39.39 0 0 0 .062-.094l3.844-5.875a.69.69 0 0 0 .092-.531z" transform="translate(-369.188 -564)"/></svg>