<svg xmlns="http://www.w3.org/2000/svg" width="15" height="15" viewBox="0 0 15 15"><defs><style>.cls-1{fill:#f17c2d;fill-rule:evenodd}</style></defs><path id="ic-unmark" class="cls-1" d="M684.164 572.512a7.522 7.522 0 1 1-2.2-5.3 7.222 7.222 0 0 1 2.2 5.3zm-4.016-3.485a.429.429 0 0 0-.7.016l-2.75 2.75-2.468-2.75a.5.5 0 1 0-.719.687l2.469 2.75-2.782 2.813a.456.456 0 0 0 0 .687.409.409 0 0 0 .688 0l2.75-2.75 2.469 2.75a.5.5 0 1 0 .718-.687l-2.468-2.75 2.781-2.813a.428.428 0 0 0 .012-.703z" transform="translate(-669.156 -565)"/></svg>