<svg id="Layer_1" data-name="Layer 1" xmlns="http://www.w3.org/2000/svg" viewBox="0 0 471.11 51.07"><defs><style>.cls-1{fill:#282828}.cls-2{fill:#e43f31}</style></defs><title>logo</title><path class="cls-1" d="M376.78 16.64h5.7v4.93a14.49 14.49 0 0 1 12.16-5.31c4.78.1 8.82 1.73 11.48 6.19a15.72 15.72 0 0 1 2.17-2.45c3.77-3.17 8.16-4.13 13-3.65a13.9 13.9 0 0 1 4.45 1.16c4 1.81 6 5.06 6.83 9.2a14.48 14.48 0 0 1 .35 2.84v20.69h-6.08V31.78a16.86 16.86 0 0 0-.3-3.48 7.7 7.7 0 0 0-7.65-6.6c-6.35-.37-10.72 3.67-10.83 10.2-.1 5.58 0 11.16 0 16.74v1.64H402a2.38 2.38 0 0 1-.15-1.38V32.32a21.51 21.51 0 0 0-.28-3.65 7.8 7.8 0 0 0-7.84-7c-6.5-.34-10.76 3.67-10.91 10.5-.12 5.42 0 10.84 0 16.26v1.81h-5.91c-.27-1.24-.36-30.24-.13-33.6zM271.19 5.75h6.23v18.9c1.39.26 22.5.34 25.58.11V5.8h6.3v44.49H303V30.48h-25.47v19.8h-6.35zM0 6.08h6.25v19.01h25.52V6.12h6.34v44.5h-6.26V30.8H6.34v19.8H0V6.08zm83.5 10.85h5.88c.39.41.2.91.21 1.36v16.58a19.83 19.83 0 0 0 .24 3.33c.78 4.6 3.58 7.12 8.22 7.35 6.73.32 11.06-3.7 11.22-10.58.11-4.89 0-9.78 0-14.67V17h6v33.63h-5.69v-4.68a.44.44 0 0 0-.52.17c-3.4 4-7.86 5.18-12.88 4.81a16 16 0 0 1-3.6-.66c-5.15-1.61-8-5.21-8.83-10.43a27 27 0 0 1-.32-4.6c.08-6.05.07-12.1.07-18.31zm62.73 2.76l-2.56 4.77a18.34 18.34 0 0 0-8.3-2.64 16.35 16.35 0 0 0-5.68.51 6 6 0 0 0-2.38 1.23 3.6 3.6 0 0 0 .46 6 15 15 0 0 0 5.13 1.6 67.14 67.14 0 0 1 7.46 1.57c.66.21 1.3.44 1.94.69 6.61 2.65 6.21 10.92 1.9 14.25a15.09 15.09 0 0 1-7 2.9 27.83 27.83 0 0 1-16.18-2.15 7.31 7.31 0 0 1-.87-.49 3.46 3.46 0 0 1-1.32-1l2.45-4.63a22.22 22.22 0 0 0 6.58 2.76 20.73 20.73 0 0 0 9.62.19 6.33 6.33 0 0 0 1.77-.7 3.68 3.68 0 0 0 2-3.56 3.28 3.28 0 0 0-2.16-2.9 20.57 20.57 0 0 0-5.52-1.44 54 54 0 0 1-6.23-1.27c-.76-.23-1.51-.49-2.25-.79-6.7-2.72-6.22-10.74-2.67-14.16a13.19 13.19 0 0 1 6.72-3.38 26.08 26.08 0 0 1 15.72 1.75 7.24 7.24 0 0 1 .84.46c.13.11.25.22.53.43z"/><path class="cls-2" d="M340 13.25L331.09 21c-2.81 2.44-5.57 4.93-8.44 7.31a3.11 3.11 0 0 0-1.17 2.69v17.38a4.26 4.26 0 0 1-.12 1.62h-2.68V31.77L312 37.52a12.2 12.2 0 0 1-2.3-2.57l29.92-26 33.83 23-1.95 2.86-6-4V50h-2.85V28.76zm-155.68-2.3L187.87.44c9.37 5.63 19 8.17 29.58 4.13a9 9 0 0 0-.57-2.16c-.19-.71-.41-1.42-.69-2.4l10.25 3.65-5.92 10.62-1.74-5.52c-11.22 5.42-22.57 6.79-34.46 2.19zm17.32 7.95h5.87v31.75h-5.87zm150.85-4.8v-7a16.07 16.07 0 0 1 3.37-.1v9.36z"/><path class="cls-1" d="M181.51 30.95c-.93-6.26-4-11-10.08-13.19-6.28-2.32-12.3-1.54-17.49 2.85-4.87 4.12-6.34 9.66-5.53 15.82a15.35 15.35 0 0 0 8.2 12.2 20.15 20.15 0 0 0 17.82.72 12.37 12.37 0 0 0 5.08-3.84c-1.15-1.28-2.12-2.65-3.36-3.82-4.31 4.21-9.34 4.95-14.77 3.05-4.12-1.44-6.34-4.59-7.12-9.08h27.32a14.88 14.88 0 0 0-.07-4.71zm-27.13.25a10.77 10.77 0 0 1 21.38 0zm316.52-.47c-1-6.73-4.41-11.61-11-13.62-6.79-2.06-13-.74-17.95 4.53-3.53 3.74-4.7 8.4-4.24 13.41.6 6.62 3.86 11.49 10.09 14.1a20.45 20.45 0 0 0 14.49.49 13.71 13.71 0 0 0 6.67-4.47c-1.19-1.29-2.14-2.67-3.37-3.81a13.78 13.78 0 0 1-14.83 3.05c-4.06-1.59-6.31-4.63-7-9h27.28a14.81 14.81 0 0 0-.14-4.68zm-27 .19c-.47-4.47 4.34-9.16 9.76-9.52 6.05-.4 11.31 4 11.39 9.52zM61.8 16.57c-10.2-.07-17.6 7.11-17.64 17.1S51.43 51 61.59 51s17.51-7.16 17.54-17.19-7.21-17.18-17.33-17.24zm10.65 21.12a10.75 10.75 0 0 1-10.78 8 11.06 11.06 0 0 1-11.34-11.1 14.84 14.84 0 0 1 .67-5.18A10.81 10.81 0 0 1 60.68 22c7.44-.53 12.26 4.79 12.29 11.49a14.85 14.85 0 0 1-.52 4.2zM234.1 16.57c-10.2-.07-17.6 7.1-17.66 17.09S223.69 51 233.85 51s17.52-7.15 17.56-17.19-7.19-17.17-17.31-17.24zm11.18 16.72c-.06 4.15-1.08 7.38-3.92 9.74-3.65 3-7.82 3.41-12.09 1.67s-6.27-5.26-6.63-9.7a12.94 12.94 0 0 1 1.17-7c2.14-4.4 6.55-6.63 11.92-6a10.75 10.75 0 0 1 9.15 8.34 11.86 11.86 0 0 1 .39 2.95z"/><path class="cls-2" d="M335.32 37.72V50h15.75V37.72zm12.23 9.17c-.73-.15-1.17-.51-1.14-1.18a1.09 1.09 0 0 1 2.18.09c-.02.68-.51.96-1.04 1.09z"/></svg>