<svg xmlns="http://www.w3.org/2000/svg" width="19" height="18.969" viewBox="0 0 19 18.969"><defs><style>.cls-1{fill:#30a6e3;fill-rule:evenodd}</style></defs><path class="cls-1" d="M18.72.069a.586.586 0 0 0-.55-.06l-5.71 2.286L6.76.013h-.01a.587.587 0 0 0-.44 0h-.02L.37 2.384a.6.6 0 0 0-.37.552v10.687a.592.592 0 0 0 .59.594.557.557 0 0 0 .22-.043l3.63-1.449a.58.58 0 0 0 .33-.77.59.59 0 0 0-.77-.333l-2.81 1.125v-9.41l4.74-1.9v4.515a.6.6 0 0 0 1.19 0V1.438l4.74 1.9v.892a.6.6 0 0 0 .6.594.589.589 0 0 0 .59-.594v-.892l4.75-1.9v9.81a.59.59 0 1 0 1.18 0V.562a.6.6 0 0 0-.26-.493zm.09 17.885l-3.39-3.389a5.341 5.341 0 1 0-.83.839l3.38 3.388a.6.6 0 0 0 .42.175.606.606 0 0 0 .42-.173.6.6 0 0 0 0-.838zm-7.54-2.55a4.156 4.156 0 1 1 4.15-4.156 4.156 4.156 0 0 1-4.15 4.158z"/></svg>